#!OML:ASF X:\für Bonn\!DataBase\2005_08_11_Bastian_Final\c3d\Bastian.ASF
:FULLY-SPECIFIED
:DEGREES
93
root 23.1525 16.4624 -4.94037 532.918 -104.748 -149.419
lowerback 70.1081 -7.52694 15.3273
upperback 17.316 -1.748 -0.830263
thorax -0.780965 -0.723604 -6.27634
lowerneck -5.80205 -6.2772 -2.31525
upperneck -19.2871 -8.23378 6.43155
head -4.47669 -4.66204 2.56209
rclavicle -4.45278e-014 -2.38542e-015
rhumerus 59.5453 -10.9195 -50.094
rradius 16.6404
rwrist -2.10487
rhand -31.8851 -5.01025
rfingers 7.12502
rthumb -5.13776 -34.928
lclavicle -4.45278e-014 -2.38542e-015
lhumerus -10.3567 -27.8646 82.0859
lradius 52.0369
lwrist 32.7712
lhand -14.0721 -15.0001
lfingers 7.12502
lthumb 12.0596 14.6324
rfemur -64.6715 -12.7889 20.4986
rtibia 59.4008
rfoot -10.3749 3.12888
rtoes 7.95606
lfemur -57.3753 0.510641 -31.5907
ltibia 43.5937
lfoot -1.02876 -2.85169
ltoes -11.2458
94
root 23.1281 16.4411 -4.93595 533.022 -104.824 -149.064
lowerback 70.3348 -7.59228 15.2309
upperback 17.2347 -1.82188 -0.934223
thorax -0.880246 -0.745183 -6.31937
lowerneck -5.65649 -6.17716 -2.24765
upperneck -19.4257 -8.09781 6.39325
head -4.55314 -4.59894 2.54883
rclavicle -4.77083e-014 -5.56597e-015
rhumerus 59.8693 -11.0699 -50.1477
rradius 16.624
rwrist -2.16998
rhand -32.1637 -5.03808
rfingers 7.12502
rthumb -5.40677 -34.9491
lclavicle -4.77083e-014 -5.56597e-015
lhumerus -10.5186 -27.6722 82.0329
lradius 52.3376
lwrist 32.867
lhand -14.1404 -15.2243
lfingers 7.12502
lthumb 11.9937 14.4121
rfemur -65.2993 -12.8362 20.4749
rtibia 59.7835
rfoot -10.5683 3.084
rtoes 7.80442
lfemur -58.0041 0.342538 -31.7123
ltibia 44.0223
lfoot -1.21088 -2.85388
ltoes -11.4985
95
root 23.1044 16.4212 -4.93235 533.01 -104.928 -148.616
lowerback 70.6057 -7.68458 15.1471
upperback 17.11 -1.90048 -1.07472
thorax -1.02688 -0.764979 -6.40439
lowerneck -5.48419 -6.07727 -2.13593
upperneck -19.5411 -7.95331 6.39566
head -4.62681 -4.53528 2.54057
rclavicle 6.67916e-014 -1.90833e-014
rhumerus 60.0921 -11.2453 -50.2768
rradius 16.6118
rwrist -2.18571
rhand -32.4525 -5.02556
rfingers 7.12502
rthumb -5.6856 -34.9293
lclavicle 6.67916e-014 -1.90833e-014
lhumerus -10.6758 -27.622 81.8998
lradius 52.6308
lwrist 33.0028
lhand -14.2037 -15.3865
lfingers 7.12502
lthumb 11.9327 14.2535
rfemur -65.9093 -12.9067 20.4255
rtibia 60.1613
rfoot -10.7344 3.02414
rtoes 7.58296
lfemur -58.5877 0.156115 -31.8594
ltibia 44.4262
lfoot -1.40472 -2.84063
ltoes -11.8016
96
root 23.0798 16.4027 -4.92858 533.136 -104.997 -148.328
lowerback 70.8729 -7.75444 15.0653
upperback 16.9974 -1.9598 -1.19165
thorax -1.15608 -0.77971 -6.47176
lowerneck -5.32373 -5.99122 -2.06454
upperneck -19.6612 -7.83181 6.37858
head -4.69844 -4.48011 2.53256
rclavicle -2.22639e-014 7.63333e-014
rhumerus 60.316 -11.3938 -50.3592
rradius 16.6071
rwrist -2.22796
rhand -32.7368 -5.02788
rfingers 7.12502
rthumb -5.9601 -34.924
lclavicle -2.22639e-014 7.63333e-014
lhumerus -10.6972 -27.5565 81.8008
lradius 52.7857
lwrist 33.1773
lhand -14.2248 -15.6023
lfingers 7.12502
lthumb 11.9124 14.0388
rfemur -66.4646 -12.9311 20.4083
rtibia 60.5129
rfoot -10.9452 2.94218
rtoes 7.3043
lfemur -59.1497 -0.00185437 -31.953
ltibia 44.8189
lfoot -1.57584 -2.83139
ltoes -12.056
97
root 23.0563 16.3844 -4.92526 533.255 -105.087 -148.029
lowerback 71.1489 -7.8094 14.9654
upperback 16.8588 -2.00445 -1.28626
thorax -1.3134 -0.79381 -6.51168
lowerneck -5.23843 -5.90562 -2.00917
upperneck -19.6985 -7.70944 6.369
head -4.73122 -4.42122 2.52337
rclavicle 1.59028e-014 1.59028e-014
rhumerus 60.502 -11.5176 -50.4114
rradius 16.6375
rwrist -2.36533
rhand -33.0141 -4.97855
rfingers 7.12502
rthumb -6.22786 -34.867
lclavicle 1.59028e-014 1.59028e-014
lhumerus -10.7292 -27.4832 81.7294
lradius 52.9177
lwrist 33.3068
lhand -14.2534 -15.7362
lfingers 7.12502
lthumb 11.8848 13.9065
rfemur -67.0233 -12.963 20.3708
rtibia 60.8587
rfoot -11.1232 2.86267
rtoes 7.1545
lfemur -59.7008 -0.149268 -32.0784
ltibia 45.1923
lfoot -1.75539 -2.86194
ltoes -12.4569
98
root 23.0328 16.367 -4.92258 533.329 -105.173 -147.706
lowerback 71.4015 -7.86283 14.8711
upperback 16.7618 -2.05983 -1.39475
thorax -1.42569 -0.806462 -6.56806
lowerneck -5.2983 -5.83012 -1.91697
upperneck -19.6467 -7.60862 6.32361
head -4.71536 -4.37148 2.48911
rclavicle 7.95139e-014 1.66979e-014
rhumerus 60.7165 -11.6646 -50.4541
rradius 16.616
rwrist -2.49122
rhand -33.3377 -4.94107
rfingers 7.12502
rthumb -6.54024 -34.8201
lclavicle 7.95139e-014 1.66979e-014
lhumerus -10.7044 -27.4073 81.6233
lradius 53.0565
lwrist 33.4155
lhand -14.2467 -15.911
lfingers 7.12502
lthumb 11.8912 13.7313
rfemur -67.5504 -12.988 20.3206
rtibia 61.1866
rfoot -11.2951 2.77816
rtoes 6.9872
lfemur -60.2209 -0.322231 -32.1736
ltibia 45.5512
lfoot -1.9288 -2.84857
ltoes -12.7232
99
root 23.0091 16.3494 -4.92041 533.444 -105.276 -147.426
lowerback 71.6502 -7.90926 14.7783
upperback 16.6583 -2.10229 -1.47054
thorax -1.54168 -0.818265 -6.5925
lowerneck -5.44144 -5.76077 -1.90319
upperneck -19.629 -7.51654 6.29123
head -4.69244 -4.32349 2.46993
rclavicle 3.18055e-015 -8.74653e-015
rhumerus 60.9223 -11.905 -50.7365
rradius 16.7163
rwrist -2.35092
rhand -33.5933 -4.88096
rfingers 7.12502
rthumb -6.78694 -34.7522
lclavicle 3.18055e-015 -8.74653e-015
lhumerus -10.7195 -27.3429 81.5765
lradius 53.2051
lwrist 33.5213
lhand -14.2209 -16.0809
lfingers 7.12502
lthumb 11.9161 13.56
rfemur -68.0656 -13.0292 20.2887
rtibia 61.5025
rfoot -11.485 2.67675
rtoes 6.709
lfemur -60.7271 -0.529466 -32.2421
ltibia 45.8916
lfoot -2.11647 -2.78855
ltoes -12.8849
100
root 22.9857 16.3343 -4.91785 533.626 -105.363 -147.24
lowerback 71.8825 -7.93746 14.6856
upperback 16.5919 -2.13738 -1.52641
thorax -1.61368 -0.827143 -6.59905
lowerneck -5.69132 -5.70336 -1.93931
upperneck -19.6312 -7.4408 6.2759
head -4.65516 -4.28308 2.46138
rclavicle 3.49861e-014 -2.62396e-014
rhumerus 61.1331 -12.1128 -50.91
rradius 16.8205
rwrist -2.3004
rhand -33.91 -4.7907
rfingers 7.12502
rthumb -7.09265 -34.6519
lclavicle 3.49861e-014 -2.62396e-014
lhumerus -10.6867 -27.239 81.5283
lradius 53.3482
lwrist 33.58
lhand -14.176 -16.2421
lfingers 7.12502
lthumb 11.9594 13.3962
rfemur -68.5388 -13.0569 20.2698
rtibia 61.7975
rfoot -11.6451 2.58542
rtoes 6.76619
lfemur -61.2002 -0.674653 -32.3234
ltibia 46.2153
lfoot -2.29435 -2.80425
ltoes -13.3697
101
root 22.962 16.3182 -4.91622 533.743 -105.456 -146.97
lowerback 72.08 -7.94594 14.5845
upperback 16.5245 -2.16181 -1.59064
thorax -1.69059 -0.829793 -6.61785
lowerneck -5.93363 -5.65599 -1.93518
upperneck -19.6683 -7.37987 6.25716
head -4.63129 -4.25396 2.44718
rclavicle -8.26944e-014 -7.95139e-015
rhumerus 61.3155 -12.3546 -51.1136
rradius 16.8818
rwrist -2.21134
rhand -34.2172 -4.71323
rfingers 7.12502
rthumb -7.38924 -34.5642
lclavicle -8.26944e-014 -7.95139e-015
lhumerus -10.6732 -27.1559 81.4776
lradius 53.4722
lwrist 33.5763
lhand -14.1164 -16.4178
lfingers 7.12502
lthumb 12.0169 13.2172
rfemur -69.0248 -13.0783 20.2236
rtibia 62.08
rfoot -11.7981 2.48821
rtoes 6.61106
lfemur -61.6781 -0.845752 -32.4035
ltibia 46.5156
lfoot -2.4557 -2.79912
ltoes -13.572
102
root 22.939 16.3047 -4.9143 533.964 -105.553 -146.858
lowerback 72.2993 -7.97218 14.501
upperback 16.4655 -2.19428 -1.65571
thorax -1.75409 -0.834948 -6.64066
lowerneck -6.26503 -5.5921 -1.8709
upperneck -19.5811 -7.30503 6.18642
head -4.56 -4.21482 2.40001
rclavicle -6.36111e-015 -1.11319e-014
rhumerus 61.5061 -12.5338 -51.2405
rradius 16.9368
rwrist -2.25603
rhand -34.5948 -4.63045
rfingers 7.12502
rthumb -7.75373 -34.4683
lclavicle -6.36111e-015 -1.11319e-014
lhumerus -10.6751 -27.1157 81.4055
lradius 53.6431
lwrist 33.6129
lhand -14.0853 -16.5203
lfingers 7.12502
lthumb 12.0469 13.113
rfemur -69.43 -13.0942 20.1972
rtibia 62.3391
rfoot -11.9687 2.3756
rtoes 6.46617
lfemur -62.0902 -1.00417 -32.4522
ltibia 46.8001
lfoot -2.62241 -2.80575
ltoes -13.9844
103
root 22.9161 16.2905 -4.91331 533.99 -105.653 -146.538
lowerback 72.5023 -7.95235 14.3605
upperback 16.395 -2.21197 -1.694
thorax -1.83541 -0.841025 -6.61775
lowerneck -6.52287 -5.55032 -1.92248
upperneck -19.5182 -7.24743 6.18654
head -4.49959 -4.18078 2.39694
rclavicle -7.95139e-014 -1.43125e-014
rhumerus 61.6856 -12.7424 -51.4476
rradius 17.0006
rwrist -2.13177
rhand -34.9291 -4.60676
rfingers 7.12502
rthumb -8.07639 -34.4324
lclavicle -7.95139e-014 -1.43125e-014
lhumerus -10.7193 -27.0148 81.4004
lradius 53.8187
lwrist 33.633
lhand -13.9641 -16.5729
lfingers 7.12502
lthumb 12.1637 13.0534
rfemur -69.8477 -13.1022 20.1088
rtibia 62.592
rfoot -12.109 2.25646
rtoes 6.31244
lfemur -62.4998 -1.1574 -32.555
ltibia 47.0608
lfoot -2.78722 -2.82012
ltoes -14.2358
104
root 22.8931 16.2778 -4.91159 534.117 -105.768 -146.318
lowerback 72.6687 -7.95332 14.2516
upperback 16.3239 -2.23515 -1.73624
thorax -1.91804 -0.84738 -6.60999
lowerneck -6.72956 -5.49713 -1.87827
upperneck -19.4477 -7.18676 6.1091
head -4.45248 -4.14689 2.35629
rclavicle 4.13472e-014 -3.18055e-015
rhumerus 61.8053 -12.8756 -51.4971
rradius 17.0471
rwrist -2.15381
rhand -35.3438 -4.60126
rfingers 7.12502
rthumb -8.47655 -34.4111
lclavicle 4.13472e-014 -3.18055e-015
lhumerus -10.7985 -26.9408 81.4018
lradius 54.0277
lwrist 33.6622
lhand -13.8913 -16.6104
lfingers 7.12502
lthumb 12.2339 13.0118
rfemur -70.2617 -13.1523 20.0627
rtibia 62.8284
rfoot -12.2471 2.16287
rtoes 6.1579
lfemur -62.9002 -1.35465 -32.6119
ltibia 47.3071
lfoot -2.94687 -2.801
ltoes -14.5352
105
root 22.8702 16.2657 -4.91095 534.376 -105.864 -146.25
lowerback 72.8544 -7.92187 14.1434
upperback 16.2162 -2.21387 -1.75649
thorax -2.03515 -0.841223 -6.59346
lowerneck -6.83086 -5.45077 -1.78703
upperneck -19.3804 -7.14356 5.97864
head -4.42666 -4.12175 2.29571
rclavicle 4.77083e-014 -6.52014e-014
rhumerus 61.8618 -12.9835 -51.5293
rradius 17.0795
rwrist -2.17938
rhand -35.7146 -4.61527
rfingers 7.12502
rthumb -8.83442 -34.4104
lclavicle 4.77083e-014 -6.52014e-014
lhumerus -10.9309 -26.8722 81.4583
lradius 54.1995
lwrist 33.6314
lhand -13.8016 -16.6298
lfingers 7.12502
lthumb 12.3204 12.9872
rfemur -70.6452 -13.1572 20.0556
rtibia 63.0494
rfoot -12.3851 2.02074
rtoes 5.95611
lfemur -63.2876 -1.46869 -32.6757
ltibia 47.5335
lfoot -3.08683 -2.85114
ltoes -15.1192
